<svg width="728" height="99" viewBox="0 0 728 99" fill="none" xmlns="http://www.w3.org/2000/svg">
<style>
    .welcome-container {
        stroke-dasharray: 2000;
        stroke-dashoffset: 2000;
        animation: dash 2s linear forwards;
    }

    @keyframes dash {
        to {
            stroke-dashoffset: 0;
        }
    }
</style>
<path d="M55.744 38.92C55.744 45.96 52.544 50.2267 46.144 51.72C44.0107 52.1893 41.1307 52.424 37.504 52.424H35.2V69H29.056V26.248H39.168C42.4533 26.248 45.056 26.5253 46.976 27.08C48.896 27.592 50.5813 28.5093 52.032 29.832C54.5067 32.008 55.744 35.0373 55.744 38.92ZM46.784 45.704C48.6187 44.3813 49.536 42.2907 49.536 39.432C49.536 36.5733 48.8107 34.4613 47.36 33.096C45.8667 31.6027 42.9653 30.856 38.656 30.856H35.2V47.304H37.632C42.3253 47.304 45.376 46.7707 46.784 45.704ZM69.8475 27.272C72.0662 26.0347 74.6475 25.416 77.5915 25.416C80.5355 25.416 83.1168 26.0347 85.3355 27.272C87.5542 28.5093 89.2822 30.1947 90.5195 32.328C92.9515 36.5093 94.1675 41.608 94.1675 47.624C94.1675 53.512 92.9302 58.5893 90.4555 62.856C89.1755 65.032 87.4262 66.7387 85.2075 67.976C82.9888 69.2133 80.3862 69.832 77.3995 69.832C74.4555 69.832 71.8955 69.2133 69.7195 67.976C67.5435 66.7387 65.8368 65.0533 64.5995 62.92C62.1675 58.7387 60.9515 53.64 60.9515 47.624C60.9515 41.6507 62.2102 36.552 64.7275 32.328C65.9648 30.1947 67.6715 28.5093 69.8475 27.272ZM69.6555 59.72C71.3622 62.8347 73.9862 64.392 77.5275 64.392C81.0688 64.392 83.6715 62.8347 85.3355 59.72C87.0422 56.6053 87.8955 52.5733 87.8955 47.624C87.8955 42.632 87.0422 38.6 85.3355 35.528C83.6715 32.4133 81.0688 30.856 77.5275 30.856C73.9862 30.856 71.3622 32.4133 69.6555 35.528C67.9915 38.6 67.1595 42.632 67.1595 47.624C67.1595 52.5733 67.9915 56.6053 69.6555 59.72ZM108.574 26.248V69H102.494V26.248H108.574ZM110.366 47.112L126.622 26.248H134.238L117.278 46.792L135.198 69H127.198L110.366 47.112ZM147.263 63.816H165.439V69H141.119V26.248H164.863V31.432H147.263V44.36H163.839V49.416H147.263V63.816ZM160.319 15.752L149.311 22.408L147.007 18.888L157.247 11.08L160.319 15.752ZM207.726 38.664C207.683 37.768 207.662 36.872 207.662 35.976C207.662 35.08 207.683 34.184 207.726 33.288L196.078 64.328H191.214L179.566 33.288C179.609 34.184 179.63 35.08 179.63 35.976C179.63 36.872 179.609 37.768 179.566 38.664L178.542 69H172.91L174.894 26.248H181.998L193.646 57.928L205.294 26.248H212.398L214.382 69H208.75L207.726 38.664ZM230.723 27.272C232.941 26.0347 235.523 25.416 238.467 25.416C241.411 25.416 243.992 26.0347 246.211 27.272C248.429 28.5093 250.157 30.1947 251.395 32.328C253.827 36.5093 255.043 41.608 255.043 47.624C255.043 53.512 253.805 58.5893 251.331 62.856C250.051 65.032 248.301 66.7387 246.083 67.976C243.864 69.2133 241.261 69.832 238.275 69.832C235.331 69.832 232.771 69.2133 230.595 67.976C228.419 66.7387 226.712 65.0533 225.475 62.92C223.043 58.7387 221.827 53.64 221.827 47.624C221.827 41.6507 223.085 36.552 225.603 32.328C226.84 30.1947 228.547 28.5093 230.723 27.272ZM230.531 59.72C232.237 62.8347 234.861 64.392 238.403 64.392C241.944 64.392 244.547 62.8347 246.211 59.72C247.917 56.6053 248.771 52.5733 248.771 47.624C248.771 42.632 247.917 38.6 246.211 35.528C244.547 32.4133 241.944 30.856 238.403 30.856C234.861 30.856 232.237 32.4133 230.531 35.528C228.867 38.6 228.035 42.632 228.035 47.624C228.035 52.5733 228.867 56.6053 230.531 59.72ZM295.433 69H289.161L268.937 34.376C269.107 36.04 269.193 37.832 269.193 39.752V69H263.369V26.248H269.641L289.865 60.872C289.694 59.208 289.609 57.416 289.609 55.496V26.248H295.433V69ZM324.788 31.688H313.652V26.248H342.004V31.688H330.868V69H324.788V31.688ZM354.325 63.816H372.501V69H348.181V26.248H371.925V31.432H354.325V44.36H370.901V49.416H354.325V63.816ZM401.285 57.992H386.245L382.597 69H376.325L390.341 26.248H397.189L411.205 69H404.997L401.285 57.992ZM399.877 53.192L393.733 32.072L387.653 53.192H399.877ZM450.664 38.664C450.621 37.768 450.6 36.872 450.6 35.976C450.6 35.08 450.621 34.184 450.664 33.288L439.016 64.328H434.152L422.504 33.288C422.546 34.184 422.568 35.08 422.568 35.976C422.568 36.872 422.546 37.768 422.504 38.664L421.48 69H415.848L417.832 26.248H424.936L436.584 57.928L448.232 26.248H455.336L457.32 69H451.688L450.664 38.664ZM504.506 37.064C504.506 41.032 502.863 43.8907 499.578 45.64C502.308 46.664 504.228 48.0507 505.338 49.8C506.49 51.5067 507.066 53.7467 507.066 56.52C507.066 60.4027 505.892 63.4533 503.546 65.672C501.199 67.8907 497.679 69 492.986 69H479.994V26.248H487.866C490.383 26.248 492.218 26.2693 493.37 26.312C500.794 26.568 504.506 30.152 504.506 37.064ZM486.138 30.856V43.656H492.41C494.287 43.528 495.738 42.888 496.762 41.736C497.786 40.5413 498.298 39.1547 498.298 37.576C498.298 35.9547 498.127 34.76 497.786 33.992C497.487 33.224 497.103 32.6267 496.634 32.2C496.207 31.7733 495.546 31.4533 494.65 31.24C493.284 30.984 491.45 30.856 489.146 30.856H486.138ZM491.77 63.816C497.828 63.816 500.858 61.2987 500.858 56.264C500.858 53.704 500.004 51.7627 498.298 50.44C496.932 49.0747 494.5 48.392 491.002 48.392H486.138V63.816H491.77ZM514.738 53.32V26.248H520.882V52.424C520.882 56.8613 521.436 59.8267 522.546 61.32C523.74 63.3253 526.002 64.328 529.33 64.328C532.7 64.328 535.004 63.3253 536.242 61.32C537.394 59.7413 537.97 56.776 537.97 52.424V26.248H544.114V53.32C544.114 58.312 543.154 62.1733 541.234 64.904C538.887 68.104 534.983 69.7253 529.522 69.768C524.06 69.8107 520.092 68.1893 517.618 64.904C515.698 62.1733 514.738 58.312 514.738 53.32ZM560.138 26.248V69H553.994V26.248H560.138ZM576.388 63.816H592.388V69H570.244V26.248H576.388V63.816ZM604.888 31.432V63.816H610.2C615.234 63.816 618.648 62.5147 620.44 59.912C622.232 57.3093 623.128 53.2133 623.128 47.624C623.128 42.0347 622.232 37.9387 620.44 35.336C618.648 32.7333 615.234 31.432 610.2 31.432H604.888ZM609.752 69H598.744V26.248H609.752C615.213 26.248 619.01 26.824 621.144 27.976C626.605 30.7493 629.336 37.32 629.336 47.688C629.336 58.0133 626.605 64.5627 621.144 67.336C619.053 68.4453 615.256 69 609.752 69ZM643.95 63.816H662.126V69H637.806V26.248H661.55V31.432H643.95V44.36H660.526V49.416H643.95V63.816ZM697.182 38.92C697.182 43.6133 695.816 47.0267 693.086 49.16C691.635 50.2693 690.014 51.0587 688.222 51.528L699.998 66.952L695.39 70.088L682.142 52.36C681.459 52.4027 680.392 52.424 678.942 52.424H676.638V69H670.494V26.248H680.606C683.891 26.248 686.494 26.5253 688.414 27.08C690.334 27.592 692.019 28.5093 693.47 29.832C695.944 32.008 697.182 35.0373 697.182 38.92ZM688.222 45.704C690.056 44.3813 690.974 42.2907 690.974 39.432C690.974 36.5733 690.248 34.4613 688.798 33.096C687.304 31.6027 684.403 30.856 680.094 30.856H676.638V47.304H679.07C683.763 47.304 686.814 46.7707 688.222 45.704Z" fill="white"/>
<rect class="welcome-container" x="1" y="1" width="726" height="97" stroke="white" stroke-width="3"/>
</svg>
