<svg width="901" height="314" viewBox="25 -50 901 314" fill="none" xmlns="http://www.w3.org/2000/svg">
<style>
    .mountain-background {
    animation: slideIn 2.2s forwards;
    }

    .mountain-foreground {
    animation: slideIn 2s forwards;
    }

    .grass-platform {
    animation: slideIn 1s forwards;
    }

    @keyframes slideIn {
    0% {
        transform: translateX(-900px);
    }
    100% {
        transform: translateX(0);
    }
    }
</style>
<path class="mountain-background" d="M385.614 35.3951C386.797 33.5751 389.461 33.5751 390.644 35.3951L517.287 230.229C518.584 232.225 517.152 234.864 514.772 234.864H261.486C259.106 234.864 257.674 232.225 258.971 230.229L385.614 35.3951Z" fill="url(#paint0_linear)"/>
<path class="mountain-background" d="M233.672 4.64581C234.819 2.60752 237.754 2.60752 238.901 4.64581L365.941 230.393C367.066 232.393 365.621 234.864 363.326 234.864H109.246C106.951 234.864 105.506 232.393 106.632 230.393L233.672 4.64581Z" fill="url(#paint1_linear)"/>
<path class="mountain-background" d="M150.102 35.3951C151.285 33.5751 153.95 33.5751 155.133 35.3951L281.776 230.229C283.073 232.225 281.641 234.864 279.26 234.864H25.9749C23.5946 234.864 22.1624 232.225 23.4596 230.229L150.102 35.3951Z" fill="url(#paint2_linear)"/>
<path class="mountain-foreground" d="M538.478 146.232C537.29 144.458 534.681 144.458 533.493 146.232L478.058 229.008C476.723 231.002 478.152 233.678 480.55 233.678H591.421C593.82 233.678 595.248 231.002 593.913 229.008L538.478 146.232Z" fill="url(#paint3_linear)"/>
<path class="mountain-foreground" d="M429.369 156.907C428.168 155.336 425.803 155.336 424.602 156.907L369.616 228.856C368.107 230.83 369.515 233.678 371.999 233.678H481.972C484.457 233.678 485.864 230.83 484.355 228.856L429.369 156.907Z" fill="url(#paint4_linear)"/>
<rect class="grass-platform" x="22.9883" y="233.125" width="852.179" height="37.8" fill="#95B79F"/>
<path class="grass-platform" d="M875.234 271.23L853.583 233.16H896.884L875.234 271.23Z" fill="#95B79F"/>
<g class="grass-platform" filter="url(#filter0_f)">
<ellipse cx="706" cy="245.5" rx="124" ry="6.5" fill="#6C8B75"/>
</g>
<defs>
<filter id="filter0_f" x="572" y="229" width="268" height="33" filterUnits="userSpaceOnUse" color-interpolation-filters="sRGB">
<feFlood flood-opacity="0" result="BackgroundImageFix"/>
<feBlend mode="normal" in="SourceGraphic" in2="BackgroundImageFix" result="shape"/>
<feGaussianBlur stdDeviation="5" result="effect1_foregroundBlur"/>
</filter>
<linearGradient id="paint0_linear" x1="388.129" y1="31.5254" x2="388.129" y2="302.644" gradientUnits="userSpaceOnUse">
<stop stop-color="#78BFE7"/>
<stop offset="1" stop-color="#1D7BB0"/>
</linearGradient>
<linearGradient id="paint1_linear" x1="236.286" y1="0" x2="236.286" y2="313.153" gradientUnits="userSpaceOnUse">
<stop stop-color="#78BFE7"/>
<stop offset="1" stop-color="#1D7BB0"/>
</linearGradient>
<linearGradient id="paint2_linear" x1="152.618" y1="31.5254" x2="152.618" y2="302.644" gradientUnits="userSpaceOnUse">
<stop stop-color="#78BFE7"/>
<stop offset="1" stop-color="#1D7BB0"/>
</linearGradient>
<linearGradient id="paint3_linear" x1="535.986" y1="142.51" x2="535.986" y2="264.067" gradientUnits="userSpaceOnUse">
<stop stop-color="#92D0F3"/>
<stop offset="1" stop-color="#2F9EDD"/>
</linearGradient>
<linearGradient id="paint4_linear" x1="426.986" y1="153.789" x2="426.986" y2="260.308" gradientUnits="userSpaceOnUse">
<stop stop-color="#92D0F3"/>
<stop offset="1" stop-color="#2F9EDD"/>
</linearGradient>
<linearGradient id="paint5_linear" x1="487.986" y1="84.8645" x2="487.986" y2="282.865" gradientUnits="userSpaceOnUse">
<stop stop-color="#92D0F3"/>
<stop offset="1" stop-color="#2F9EDD"/>
</linearGradient>
</defs>
</svg>
